<?xml version="1.0" standalone="no"?><!DOCTYPE svg PUBLIC "-//W3C//DTD SVG 1.1//EN" "http://www.w3.org/Graphics/SVG/1.1/DTD/svg11.dtd"><svg class="icon" width="200px" height="200.00px" viewBox="0 0 1024 1024" version="1.1" xmlns="http://www.w3.org/2000/svg"><path d="M430.6 117.19l0.43 0.525 90.7 114.47 90.7-114.344 0.433-0.53c7.022-8.337 18.978-10.616 28.598-5.36l304.56 166.383 0.58 0.328c10.707 6.25 14.561 19.932 8.582 30.888a23.006 23.006 0 0 1-2.242 3.366l-98.476 122.869 53.257 123.41c4.756 11.023 0.235 23.81-10.293 29.42l-0.58 0.299-62.6 31.14a29.798 29.798 0 0 1 2.316 10.876l0.008 0.706v124.976a29.908 29.908 0 0 1-15.835 26.393l-0.669 0.346L527.8 929.833a29.88 29.88 0 0 1-26 0.375l-0.794-0.385-291.773-146.481a29.908 29.908 0 0 1-16.476-25.977l-0.01-0.753V631.636c0-0.265 0.004-0.529 0.01-0.792l-68.167-33.91-0.58-0.299c-10.528-5.609-15.05-18.396-10.293-29.419l60.239-139.593-90.96-114.528a23.006 23.006 0 0 1-2.277-3.471c-5.88-11.01-1.901-24.656 8.862-30.81l0.583-0.322 312.012-166.776c9.604-5.133 21.455-2.815 28.425 5.474z m81.498 514.103L474.1 741.773l-0.222 0.617c-4.361 11.614-17.201 17.714-29.002 13.651a22.988 22.988 0 0 1-2.756-1.154l-189.59-94.31v77.581l261.892 131.48 262.366-131.496 0.001-89.507-197.472 98.232c-0.892 0.444-1.812 0.83-2.755 1.154-11.801 4.062-24.641-2.037-29.003-13.652l-0.221-0.616-35.24-102.46zM220.273 471.191l-37.85 87.713 248.786 123.755 32.357-94.086-243.293-117.382z m580.89-8.02L557.872 580.556l32.36 94.083 248.785-123.757-37.852-87.71zM522.39 287.451l-268.493 133.56 248.511 119.9 263.695-127.227-243.713-126.233z m117.613-108.15l-57.186 72.094 242.242 125.471 53.771-67.094L640.002 179.3z m-236.744-0.35L157.25 310.444l52.285 65.833L460.64 251.37l-57.38-72.42z" fill="#333333" /></svg>